<?xml version="1.0" encoding="utf-8"?>
<!-- Generator: Adobe Illustrator 16.0.0, SVG Export Plug-In . SVG Version: 6.00 Build 0)  -->
<!DOCTYPE svg PUBLIC "-//W3C//DTD SVG 1.1//EN" "http://www.w3.org/Graphics/SVG/1.1/DTD/svg11.dtd">
<svg version="1.1" id="Layer_1" xmlns="http://www.w3.org/2000/svg" xmlns:xlink="http://www.w3.org/1999/xlink" x="0px" y="0px"
	 width="303.307px" height="6044.2px" viewBox="0 0 303.307 6044.2" enable-background="new 0 0 303.307 6044.2"
	 xml:space="preserve">
<desc>Output from Flights of Ideas SVG Sketchup Plugin</desc>
<line fill="none" stroke="#0000FF" stroke-linecap="round" stroke-linejoin="round" x1="143.15" y1="193.041" x2="157.323" y2="193.041"/>
<line fill="none" stroke="#0000FF" stroke-linecap="round" stroke-linejoin="round" x1="157.323" y1="193.041" x2="157.323" y2="89.576"/>
<line fill="none" stroke="#0000FF" stroke-linecap="round" stroke-linejoin="round" x1="157.323" y1="89.576" x2="128.976" y2="89.576"/>
<line fill="none" stroke="#0000FF" stroke-linecap="round" stroke-linejoin="round" x1="128.976" y1="89.576" x2="128.976" y2="66.899"/>
<line fill="none" stroke="#0000FF" stroke-linecap="round" stroke-linejoin="round" x1="128.976" y1="66.899" x2="157.323" y2="66.899"/>
<line fill="none" stroke="#0000FF" stroke-linecap="round" stroke-linejoin="round" x1="157.323" y1="66.899" x2="157.323" y2="22.961"/>
<line fill="none" stroke="#0000FF" stroke-linecap="round" stroke-linejoin="round" x1="157.323" y1="22.961" x2="143.15" y2="22.961"/>
<line fill="none" stroke="#0000FF" stroke-linecap="round" stroke-linejoin="round" x1="143.15" y1="22.961" x2="143.15" y2="31.465"/>
<line fill="none" stroke="#0000FF" stroke-linecap="round" stroke-linejoin="round" x1="143.15" y1="31.465" x2="51.024" y2="31.465"/>
<line fill="none" stroke="#0000FF" stroke-linecap="round" stroke-linejoin="round" x1="51.024" y1="31.465" x2="51.024" y2="93.828"/>
<line fill="none" stroke="#0000FF" stroke-linecap="round" stroke-linejoin="round" x1="51.024" y1="93.828" x2="42.52" y2="93.828"/>
<line fill="none" stroke="#0000FF" stroke-linecap="round" stroke-linejoin="round" x1="42.52" y1="93.828" x2="42.52" y2="122.174"/>
<line fill="none" stroke="#0000FF" stroke-linecap="round" stroke-linejoin="round" x1="42.52" y1="122.174" x2="51.024" y2="122.174"/>
<line fill="none" stroke="#0000FF" stroke-linecap="round" stroke-linejoin="round" x1="51.024" y1="122.174" x2="51.024" y2="184.537"/>
<line fill="none" stroke="#0000FF" stroke-linecap="round" stroke-linejoin="round" x1="51.024" y1="184.537" x2="143.15" y2="184.537"/>
<line fill="none" stroke="#0000FF" stroke-linecap="round" stroke-linejoin="round" x1="143.15" y1="184.537" x2="143.15" y2="193.041"/>
<g>
	<g id="face15">
		
			<line fill="none" stroke="#0000FF" stroke-linecap="round" stroke-linejoin="round" x1="206.929" y1="211.795" x2="51.024" y2="211.795"/>
		
			<line fill="none" stroke="#0000FF" stroke-linecap="round" stroke-linejoin="round" x1="51.024" y1="211.795" x2="51.024" y2="248.645"/>
		
			<line fill="none" stroke="#0000FF" stroke-linecap="round" stroke-linejoin="round" x1="51.024" y1="248.645" x2="42.52" y2="248.645"/>
		
			<line fill="none" stroke="#0000FF" stroke-linecap="round" stroke-linejoin="round" x1="42.52" y1="248.645" x2="42.52" y2="276.99"/>
		
			<line fill="none" stroke="#0000FF" stroke-linecap="round" stroke-linejoin="round" x1="42.52" y1="276.99" x2="51.024" y2="276.99"/>
		
			<line fill="none" stroke="#0000FF" stroke-linecap="round" stroke-linejoin="round" x1="51.024" y1="276.99" x2="51.024" y2="291.164"/>
		
			<line fill="none" stroke="#0000FF" stroke-linecap="round" stroke-linejoin="round" x1="51.024" y1="291.164" x2="263.621" y2="291.164"/>
		
			<line fill="none" stroke="#0000FF" stroke-linecap="round" stroke-linejoin="round" x1="263.621" y1="291.164" x2="263.621" y2="276.99"/>
		
			<line fill="none" stroke="#0000FF" stroke-linecap="round" stroke-linejoin="round" x1="263.621" y1="276.99" x2="272.125" y2="276.99"/>
		
			<line fill="none" stroke="#0000FF" stroke-linecap="round" stroke-linejoin="round" x1="272.125" y1="276.99" x2="272.125" y2="248.645"/>
		
			<line fill="none" stroke="#0000FF" stroke-linecap="round" stroke-linejoin="round" x1="272.125" y1="248.645" x2="263.621" y2="248.645"/>
		
			<line fill="none" stroke="#0000FF" stroke-linecap="round" stroke-linejoin="round" x1="263.621" y1="248.645" x2="263.621" y2="211.795"/>
		
			<line fill="none" stroke="#0000FF" stroke-linecap="round" stroke-linejoin="round" x1="263.621" y1="211.795" x2="235.276" y2="211.795"/>
		
			<line fill="none" stroke="#0000FF" stroke-linecap="round" stroke-linejoin="round" x1="235.276" y1="211.795" x2="235.276" y2="203.291"/>
		
			<line fill="none" stroke="#0000FF" stroke-linecap="round" stroke-linejoin="round" x1="235.276" y1="203.291" x2="206.929" y2="203.291"/>
		
			<line fill="none" stroke="#0000FF" stroke-linecap="round" stroke-linejoin="round" x1="206.929" y1="203.291" x2="206.929" y2="211.795"/>
		
			<line fill="none" stroke="#0000FF" stroke-linecap="round" stroke-linejoin="round" x1="140.031" y1="240.141" x2="174.614" y2="240.141"/>
		
			<line fill="none" stroke="#0000FF" stroke-linecap="round" stroke-linejoin="round" x1="174.614" y1="240.141" x2="174.614" y2="274.723"/>
		
			<line fill="none" stroke="#0000FF" stroke-linecap="round" stroke-linejoin="round" x1="174.614" y1="274.723" x2="140.031" y2="274.723"/>
		
			<line fill="none" stroke="#0000FF" stroke-linecap="round" stroke-linejoin="round" x1="140.031" y1="274.723" x2="140.031" y2="240.141"/>
	</g>
	<g id="face16">
		
			<line fill="none" stroke="#0000FF" stroke-linecap="round" stroke-linejoin="round" x1="42.52" y1="328.014" x2="42.52" y2="481.086"/>
		
			<line fill="none" stroke="#0000FF" stroke-linecap="round" stroke-linejoin="round" x1="42.52" y1="481.086" x2="134.646" y2="481.086"/>
		
			<line fill="none" stroke="#0000FF" stroke-linecap="round" stroke-linejoin="round" x1="134.646" y1="481.086" x2="134.646" y2="489.59"/>
		
			<line fill="none" stroke="#0000FF" stroke-linecap="round" stroke-linejoin="round" x1="134.646" y1="489.59" x2="162.991" y2="489.59"/>
		
			<line fill="none" stroke="#0000FF" stroke-linecap="round" stroke-linejoin="round" x1="162.991" y1="489.59" x2="162.991" y2="481.086"/>
		
			<line fill="none" stroke="#0000FF" stroke-linecap="round" stroke-linejoin="round" x1="162.991" y1="481.086" x2="255.117" y2="481.086"/>
		
			<line fill="none" stroke="#0000FF" stroke-linecap="round" stroke-linejoin="round" x1="255.117" y1="481.086" x2="255.117" y2="328.014"/>
		
			<line fill="none" stroke="#0000FF" stroke-linecap="round" stroke-linejoin="round" x1="255.117" y1="328.014" x2="162.991" y2="328.014"/>
		
			<line fill="none" stroke="#0000FF" stroke-linecap="round" stroke-linejoin="round" x1="162.991" y1="328.014" x2="162.991" y2="319.51"/>
		
			<line fill="none" stroke="#0000FF" stroke-linecap="round" stroke-linejoin="round" x1="162.991" y1="319.51" x2="134.646" y2="319.51"/>
		
			<line fill="none" stroke="#0000FF" stroke-linecap="round" stroke-linejoin="round" x1="134.646" y1="319.51" x2="134.646" y2="328.014"/>
		
			<line fill="none" stroke="#0000FF" stroke-linecap="round" stroke-linejoin="round" x1="134.646" y1="328.014" x2="42.52" y2="328.014"/>
		
			<line fill="none" stroke="#0000FF" stroke-linecap="round" stroke-linejoin="round" x1="150.236" y1="452.738" x2="147.402" y2="452.738"/>
		
			<line fill="none" stroke="#0000FF" stroke-linecap="round" stroke-linejoin="round" x1="147.402" y1="452.738" x2="147.402" y2="356.645"/>
		
			<line fill="none" stroke="#0000FF" stroke-linecap="round" stroke-linejoin="round" x1="147.402" y1="356.645" x2="148.819" y2="356.645"/>
		
			<line fill="none" stroke="#0000FF" stroke-linecap="round" stroke-linejoin="round" x1="148.819" y1="356.645" x2="150.236" y2="356.645"/>
		
			<line fill="none" stroke="#0000FF" stroke-linecap="round" stroke-linejoin="round" x1="150.236" y1="356.645" x2="150.236" y2="452.738"/>
	</g>
</g>
<g id="face18">
	
		<line fill="none" stroke="#0000FF" stroke-linecap="round" stroke-linejoin="round" x1="125.432" y1="583.132" x2="97.086" y2="583.132"/>
	
		<line fill="none" stroke="#0000FF" stroke-linecap="round" stroke-linejoin="round" x1="97.086" y1="583.132" x2="97.086" y2="686.597"/>
	
		<line fill="none" stroke="#0000FF" stroke-linecap="round" stroke-linejoin="round" x1="97.086" y1="686.597" x2="111.259" y2="686.597"/>
	
		<line fill="none" stroke="#0000FF" stroke-linecap="round" stroke-linejoin="round" x1="111.259" y1="686.597" x2="111.259" y2="678.093"/>
	
		<line fill="none" stroke="#0000FF" stroke-linecap="round" stroke-linejoin="round" x1="111.259" y1="678.093" x2="203.385" y2="678.093"/>
	
		<line fill="none" stroke="#0000FF" stroke-linecap="round" stroke-linejoin="round" x1="203.385" y1="678.093" x2="203.385" y2="615.731"/>
	
		<line fill="none" stroke="#0000FF" stroke-linecap="round" stroke-linejoin="round" x1="203.385" y1="615.731" x2="211.889" y2="615.731"/>
	
		<line fill="none" stroke="#0000FF" stroke-linecap="round" stroke-linejoin="round" x1="211.889" y1="615.731" x2="211.889" y2="587.384"/>
	
		<line fill="none" stroke="#0000FF" stroke-linecap="round" stroke-linejoin="round" x1="211.889" y1="587.384" x2="203.385" y2="587.384"/>
	
		<line fill="none" stroke="#0000FF" stroke-linecap="round" stroke-linejoin="round" x1="203.385" y1="587.384" x2="203.385" y2="525.022"/>
	
		<line fill="none" stroke="#0000FF" stroke-linecap="round" stroke-linejoin="round" x1="203.385" y1="525.022" x2="111.259" y2="525.022"/>
	
		<line fill="none" stroke="#0000FF" stroke-linecap="round" stroke-linejoin="round" x1="111.259" y1="525.022" x2="111.259" y2="516.519"/>
	
		<line fill="none" stroke="#0000FF" stroke-linecap="round" stroke-linejoin="round" x1="111.259" y1="516.519" x2="97.086" y2="516.519"/>
	
		<line fill="none" stroke="#0000FF" stroke-linecap="round" stroke-linejoin="round" x1="97.086" y1="516.519" x2="97.086" y2="560.454"/>
	
		<line fill="none" stroke="#0000FF" stroke-linecap="round" stroke-linejoin="round" x1="97.086" y1="560.454" x2="125.432" y2="560.454"/>
	
		<line fill="none" stroke="#0000FF" stroke-linecap="round" stroke-linejoin="round" x1="125.432" y1="560.454" x2="125.432" y2="583.132"/>
</g>
</svg>
